<svg width="24" height="24" viewBox="0 0 24 24" fill="none" xmlns="http://www.w3.org/2000/svg">
<path d="M23.9278 21.7667L16.1369 14.1535C17.3459 12.6261 17.9999 10.7587 17.9999 8.79461C17.9999 6.44352 17.0609 4.239 15.3629 2.57682C13.6649 0.914639 11.4029 0 8.99993 0C6.59695 0 4.33497 0.917571 2.63698 2.57682C0.935993 4.23607 0 6.44352 0 8.79461C0 11.1428 0.938993 13.3531 2.63698 15.0124C4.33497 16.6746 6.59395 17.5892 8.99993 17.5892C11.0099 17.5892 12.9179 16.9501 14.4809 15.7717L22.2718 23.3819C22.2947 23.4043 22.3218 23.422 22.3517 23.4341C22.3815 23.4462 22.4135 23.4524 22.4458 23.4524C22.4781 23.4524 22.5101 23.4462 22.54 23.4341C22.5699 23.422 22.597 23.4043 22.6198 23.3819L23.9278 22.1067C23.9507 22.0844 23.9688 22.0579 23.9812 22.0287C23.9936 21.9995 23.9999 21.9683 23.9999 21.9367C23.9999 21.9051 23.9936 21.8738 23.9812 21.8447C23.9688 21.8155 23.9507 21.789 23.9278 21.7667ZM13.7519 13.4382C12.4799 14.6782 10.7939 15.3612 8.99993 15.3612C7.20595 15.3612 5.51996 14.6782 4.24797 13.4382C2.97898 12.1952 2.27998 10.5477 2.27998 8.79461C2.27998 7.04155 2.97898 5.3911 4.24797 4.15106C5.51996 2.91102 7.20595 2.22797 8.99993 2.22797C10.7939 2.22797 12.4829 2.90808 13.7519 4.15106C15.0209 5.39403 15.7199 7.04155 15.7199 8.79461C15.7199 10.5477 15.0209 12.1981 13.7519 13.4382Z" fill="#CDCDCD"/>
</svg>
