<svg width="155" height="50" viewBox="0 0 155 50" fill="none" xmlns="http://www.w3.org/2000/svg">
<line x1="0.897083" y1="31.6773" x2="155" y2="31.6773" stroke="#D1D1D3" stroke-dasharray="5 5"/>
<path d="M0.897083 43.6853L2.30688 46.5372C3.58047 49.1136 7.23325 49.1731 8.59003 46.6395V46.6395C9.47704 44.9832 11.505 44.3106 13.206 45.1085L14.1105 45.5328C16.5696 46.6863 19.4868 45.4625 20.3869 42.8998L20.7404 41.8935C21.5214 39.6698 23.6214 38.1817 25.9782 38.1817H27.5284C30.8923 38.1817 33.8709 36.0088 34.898 32.8056L37.7795 23.8192C38.6091 21.2319 40.6945 19.242 43.3178 18.5344L61.0619 13.7484C62.4769 13.3668 63.76 12.604 64.7713 11.5432L72.4562 3.48239C74.9027 0.916146 78.7459 0.264954 81.9013 1.882L92.6601 7.39557C94.2607 8.21585 95.5385 9.55124 96.2874 11.1865L102.579 24.9241C102.807 25.4222 102.984 25.9425 103.106 26.4767L107.204 44.4421C108.092 48.332 113.533 48.5951 114.792 44.8089V44.8089C115.035 44.076 115.489 43.4308 116.096 42.9533L118.384 41.1529C119.199 40.5124 119.881 39.7199 120.393 38.8194L134.987 13.165" stroke="#FFB800" stroke-width="2"/>
<circle cx="134.486" cy="13.165" r="8.50568" fill="#FFB800" fill-opacity="0.15"/>
<circle cx="134.987" cy="13.6653" r="3.50267" fill="#FFB800" stroke="#FFB800"/>
</svg>
