<svg width="670" height="170" viewBox="0 0 670 170" fill="none" xmlns="http://www.w3.org/2000/svg">
<rect y="40" width="12" height="130" fill="#F1F1F2"/>
<rect x="14" y="27" width="12" height="143" fill="#E6E6E7"/>
<rect x="58.5" y="101" width="12" height="69" fill="#F1F1F2"/>
<rect x="72.5" y="80" width="12" height="90" fill="#E6E6E7"/>
<rect x="117" y="62" width="12" height="108" fill="#F1F1F2"/>
<rect x="131" y="79" width="12" height="91" fill="#E6E6E7"/>
<rect x="175.5" y="98" width="12" height="72" fill="#F1F1F2"/>
<rect x="189.5" y="65" width="12" height="105" fill="#E6E6E7"/>
<rect x="234" y="73" width="12" height="97" fill="#F1F1F2"/>
<rect x="248" y="55" width="12" height="115" fill="#E6E6E7"/>
<rect x="292.5" y="40" width="12" height="130" fill="#FFB800"/>
<rect x="306.5" width="12" height="170" fill="#FF8600"/>
<rect x="351" y="59" width="12" height="111" fill="#F1F1F2"/>
<rect x="365" y="31" width="12" height="139" fill="#E6E6E7"/>
<rect x="409.5" y="78" width="12" height="92" fill="#F1F1F2"/>
<rect x="423.5" y="47" width="12" height="123" fill="#E6E6E7"/>
<rect x="468" y="104" width="12" height="66" fill="#F1F1F2"/>
<rect x="482" y="76" width="12" height="94" fill="#E6E6E7"/>
<rect x="526.5" y="73" width="12" height="97" fill="#F1F1F2"/>
<rect x="540.5" y="31" width="12" height="139" fill="#E6E6E7"/>
<rect x="585" y="94" width="12" height="76" fill="#F1F1F2"/>
<rect x="599" y="112" width="12" height="58" fill="#E6E6E7"/>
<rect x="643.5" y="69" width="12" height="101" fill="#F1F1F2"/>
<rect x="657.5" y="51" width="12" height="119" fill="#E6E6E7"/>
</svg>
