<svg width="20" height="20" viewBox="0 0 20 20" fill="none" xmlns="http://www.w3.org/2000/svg">
<g clip-path="url(#clip0_0_24)">
<path d="M16.6525 14.8675C16.5228 14.9977 16.4234 15.155 16.3613 15.328C16.2993 15.5011 16.2763 15.6857 16.2938 15.8687C16.3816 16.7157 16.5482 17.5526 16.7913 18.3687C15.0475 17.9649 13.9825 17.4974 13.4988 17.2524C13.2244 17.1135 12.9084 17.0805 12.6113 17.1599C11.7595 17.387 10.8816 17.5013 10.0001 17.4999C5.00511 17.4999 1.25013 13.9912 1.25013 10C1.25013 6.01003 5.00511 2.50005 10.0001 2.50005C14.995 2.50005 18.75 6.01003 18.75 10C18.75 11.835 17.9788 13.5375 16.6525 14.8675ZM17.2688 19.7487C17.5649 19.8074 17.8621 19.8611 18.16 19.9099C18.41 19.9499 18.6 19.6899 18.5013 19.4574C18.3903 19.1957 18.2885 18.9301 18.1963 18.6612L18.1925 18.6487C17.8825 17.7487 17.63 16.7137 17.5375 15.75C19.0713 14.2125 20 12.2 20 10C20 5.16753 15.5225 1.25006 10.0001 1.25006C4.47761 1.25006 0.000143331 5.16753 0.000143331 10C0.000143331 14.8325 4.47761 18.7499 10.0001 18.7499C10.9905 18.7513 11.9768 18.6227 12.9338 18.3674C13.5838 18.6962 14.9825 19.2949 17.2688 19.7487Z" fill="white"/>
</g>
<defs>
<clipPath id="clip0_0_24">
<rect width="19.4286" height="19.4286" fill="white" transform="matrix(-1.0294 0 0 1.0294 20 0)"/>
</clipPath>
</defs>
</svg>
