<svg width="18" height="18" viewBox="0 0 18 18" fill="none" xmlns="http://www.w3.org/2000/svg">
<path d="M11.7824 9.5325C12.5177 8.954 13.0544 8.16069 13.3178 7.26296C13.5812 6.36522 13.5583 5.4077 13.2522 4.5236C12.9461 3.6395 12.3721 2.8728 11.6099 2.33014C10.8478 1.78749 9.93546 1.49588 8.99988 1.49588C8.06429 1.49588 7.15196 1.78749 6.38982 2.33014C5.62768 2.8728 5.05363 3.6395 4.74753 4.5236C4.44144 5.4077 4.41851 6.36522 4.68195 7.26296C4.94538 8.16069 5.48208 8.954 6.21738 9.5325C4.95743 10.0373 3.85809 10.8745 3.03654 11.9549C2.215 13.0354 1.70205 14.3185 1.55238 15.6675C1.54154 15.766 1.55021 15.8657 1.57789 15.9608C1.60558 16.0559 1.65173 16.1447 1.71371 16.222C1.83889 16.3781 2.02096 16.4781 2.21988 16.5C2.41879 16.5219 2.61825 16.4638 2.77437 16.3387C2.93049 16.2135 3.0305 16.0314 3.05238 15.8325C3.21706 14.3664 3.91614 13.0124 5.01604 12.0291C6.11594 11.0458 7.53955 10.5023 9.01488 10.5023C10.4902 10.5023 11.9138 11.0458 13.0137 12.0291C14.1136 13.0124 14.8127 14.3664 14.9774 15.8325C14.9978 16.0168 15.0857 16.187 15.2242 16.3103C15.3627 16.4335 15.542 16.5011 15.7274 16.5H15.8099C16.0065 16.4774 16.1862 16.378 16.3098 16.2234C16.4334 16.0689 16.491 15.8718 16.4699 15.675C16.3195 14.3222 15.8038 13.0357 14.978 11.9537C14.1522 10.8716 13.0476 10.0346 11.7824 9.5325ZM8.99988 9C8.40653 9 7.82651 8.82405 7.33317 8.49441C6.83982 8.16477 6.4553 7.69623 6.22824 7.14805C6.00117 6.59987 5.94176 5.99667 6.05752 5.41473C6.17327 4.83279 6.459 4.29824 6.87855 3.87868C7.29811 3.45912 7.83266 3.1734 8.41461 3.05765C8.99655 2.94189 9.59975 3.0013 10.1479 3.22836C10.6961 3.45543 11.1646 3.83994 11.4943 4.33329C11.8239 4.82664 11.9999 5.40666 11.9999 6C11.9999 6.79565 11.6838 7.55871 11.1212 8.12132C10.5586 8.68393 9.79553 9 8.99988 9Z" fill="#818187"/>
</svg>
