<svg width="20" height="20" viewBox="0 0 20 20" fill="none" xmlns="http://www.w3.org/2000/svg">
<g clip-path="url(#clip0_0_145)">
<path d="M16.6525 14.8677C16.5227 14.9979 16.4233 15.1552 16.3613 15.3282C16.2993 15.5013 16.2762 15.6859 16.2937 15.8689C16.3816 16.7159 16.5481 17.5528 16.7912 18.3689C15.0475 17.9652 13.9825 17.4977 13.4987 17.2527C13.2243 17.1137 12.9084 17.0808 12.6112 17.1602C11.7594 17.3873 10.8815 17.5016 9.99995 17.5002C5.00492 17.5002 1.2499 13.9914 1.2499 10.0001C1.2499 6.0101 5.00492 2.50009 9.99995 2.50009C14.995 2.50009 18.75 6.0101 18.75 10.0001C18.75 11.8351 17.9787 13.5376 16.6525 14.8677ZM17.2687 19.7489C17.5649 19.8076 17.862 19.8614 18.16 19.9102C18.41 19.9502 18.6 19.6902 18.5012 19.4577C18.3903 19.1959 18.2885 18.9303 18.1962 18.6614L18.1925 18.6489C17.8825 17.7489 17.63 16.7139 17.5375 15.7502C19.0712 14.2126 20 12.2001 20 10.0001C20 5.1676 15.5225 1.25008 9.99995 1.25008C4.47742 1.25008 -0.00010799 5.1676 -0.00010799 10.0001C-0.00010799 14.8327 4.47742 18.7502 9.99995 18.7502C10.9904 18.7515 11.9767 18.6229 12.9337 18.3677C13.5837 18.6964 14.9825 19.2952 17.2687 19.7489Z" fill="white"/>
</g>
<defs>
<clipPath id="clip0_0_145">
<rect width="19.4286" height="19.4286" fill="white" transform="matrix(-1.02942 0 0 1.02942 20 0)"/>
</clipPath>
</defs>
</svg>
