<svg width="88" height="26" viewBox="0 0 88 26" fill="none" xmlns="http://www.w3.org/2000/svg">
<g clip-path="url(#clip0_28_1571)">
<g clip-path="url(#clip1_28_1571)">
<path d="M74.6818 11.0399H64.7429C64.8239 11.6337 65.1046 12.1822 65.5389 12.5952C65.9731 13.0082 66.535 13.2611 67.1321 13.3122C68.1201 13.3746 69.0107 13.0706 69.8604 12.5892C70.067 12.4703 70.2638 12.3378 70.4061 12.2482L73.2845 15.0642C73.141 15.2109 72.9901 15.3501 72.8323 15.4812C71.7911 16.2567 70.5822 16.7767 69.3031 16.9993C67.3426 17.3774 65.4405 17.1942 63.6515 16.2627C62.4173 15.6313 61.3995 14.6461 60.7283 13.433C60.6601 13.3161 60.59 13.1992 60.5198 13.0842C60.5198 13.0706 60.4906 13.0647 60.4321 13.0277C60.359 13.1269 60.2938 13.2319 60.2373 13.3414C60.0307 13.8072 59.8202 14.273 59.637 14.7485C59.5986 14.898 59.5053 15.0276 59.3756 15.1114C59.246 15.1952 59.0895 15.227 58.9374 15.2006C57.6616 15.1759 56.3851 15.1759 55.108 15.2006C54.7319 15.2006 54.5682 15.0583 54.4318 14.7387C53.3755 12.2936 52.3108 9.84919 51.2377 7.4054C50.4231 5.53455 49.6059 3.665 48.7861 1.79675C48.712 1.62916 48.6438 1.45961 48.5522 1.24135C48.6809 1.21592 48.8111 1.19899 48.942 1.19068C50.4056 1.19068 51.8652 1.19068 53.3327 1.18093C53.4736 1.16309 53.6162 1.19716 53.7338 1.27677C53.8514 1.35639 53.9361 1.47611 53.9719 1.61357C54.8761 3.95213 55.7998 6.2634 56.7197 8.58637C56.7976 8.78125 56.8873 8.97613 56.973 9.17101H57.0919C57.1659 9.00731 57.2458 8.84946 57.3102 8.68381C58.1858 6.41671 59.0602 4.1496 59.9332 1.8825C59.9761 1.77142 60.0229 1.66034 60.056 1.54731C60.081 1.43029 60.1499 1.32729 60.2485 1.2595C60.3471 1.19171 60.4679 1.16429 60.5861 1.18288C61.3013 1.19847 62.0165 1.18288 62.7298 1.18288C63.443 1.18288 64.1914 1.18288 64.9241 1.18288C65.0703 1.18288 65.2145 1.21017 65.423 1.2316L64.7935 2.79064C65.3412 2.69515 65.7835 2.59576 66.2337 2.54314C67.5177 2.36217 68.8264 2.4925 70.0495 2.92316C71.7917 3.55262 73.0038 4.75893 73.7697 6.431C74.2402 7.47205 74.5213 8.58864 74.5999 9.72837C74.6389 10.1337 74.6506 10.5508 74.6818 11.0399ZM64.8267 8.33498H66.4539C66.9781 8.33498 67.5043 8.33498 68.0305 8.33498C68.5633 8.35475 69.0969 8.34434 69.6285 8.3038C69.5469 7.76053 69.275 7.26389 68.8614 6.90236C68.4477 6.54082 67.9192 6.33787 67.3699 6.32966C66.2201 6.30043 65.0508 7.15401 64.8267 8.33498Z" fill="white"/>
<path d="M48.0807 4.21723C46.7341 4.21723 45.3913 4.21723 44.0447 4.21723C43.3743 4.21723 43.4776 4.13928 43.2067 4.78628C43.1931 4.81746 43.1873 4.85059 43.1736 4.88372C42.3005 7.15212 41.4262 9.42183 40.5505 11.6928C40.4862 11.8565 40.4044 12.0144 40.3303 12.1761C40.2894 12.1761 40.2504 12.1761 40.2114 12.1761C40.1257 11.9812 40.0341 11.7864 39.9561 11.5915C39.0467 9.2997 38.1373 7.00791 37.2278 4.71612C37.0329 4.23087 37.0329 4.22892 36.5418 4.22892C35.1127 4.22892 33.6836 4.22892 32.2545 4.22892C32.1239 4.22892 31.9953 4.24841 31.8238 4.26205C32.2136 5.35533 32.7631 6.33947 33.0886 7.41521C32.9211 7.2205 32.7686 7.01333 32.6326 6.79549C31.7496 5.43819 30.3724 4.47838 28.7934 4.11979C27.6481 3.84398 26.4574 3.81277 25.2992 4.0282C22.4657 4.55048 20.5305 6.13875 19.597 8.9002C19.5464 9.0522 19.4879 9.20616 19.4333 9.35817C19.3573 9.06111 19.3265 8.75432 19.3417 8.44808C19.3671 6.81197 18.8535 5.21297 17.8801 3.89763C16.0093 1.35055 13.4466 0.113059 10.311 0.0214658C8.86694 -0.0214078 7.41898 0.0214658 5.97297 0.0214658C4.8719 0.0117218 3.75914 2.90221e-05 2.65222 0.0214658C1.18672 0.0506978 -0.0566142 1.32521 -9.90139e-05 2.78292C0.0150189 3.43711 0.25907 4.06529 0.689573 4.55811C1.12008 5.05093 1.70977 5.37717 2.356 5.48005C2.64291 5.51616 2.93237 5.5279 3.22127 5.51513C5.41756 5.51513 7.61386 5.51513 9.80821 5.51513C10.9775 5.51513 12.0669 5.8094 12.9438 6.64544C13.1948 6.86387 13.3989 7.13084 13.5439 7.43026C13.6889 7.72968 13.7718 8.05535 13.7877 8.38766C13.8149 9.3036 13.3823 9.98568 12.7022 10.5313C11.9167 11.1443 10.9447 11.469 9.94852 11.4512C8.9254 11.4668 7.90618 11.4512 6.88306 11.4512C6.47281 11.4429 6.06631 11.5308 5.6961 11.7077C5.32589 11.8847 5.00224 12.1459 4.75107 12.4704C4.66756 12.587 4.55844 12.6829 4.4321 12.7508C4.30577 12.8187 4.16555 12.8568 4.02222 12.8621C3.48288 12.911 2.96118 13.0794 2.49496 13.3549C2.02873 13.6305 1.62966 14.0063 1.32668 14.4552C1.0237 14.9041 0.824398 15.4147 0.743226 15.9502C0.662054 16.4856 0.701045 17.0324 0.857373 17.5509C1.02725 18.1893 1.37311 18.7672 1.8555 19.2186C2.33789 19.6699 2.9374 19.9767 3.58569 20.1038C5.00247 20.4293 6.20293 19.9908 7.18707 18.9346C7.3118 18.802 7.42483 18.6598 7.57683 18.4922C7.875 18.7436 8.13419 18.958 8.38948 19.1782L10.4903 21.012C10.3188 20.7723 10.1239 20.5072 9.90565 20.2091C7.89644 17.4983 10.9385 16.8182 11.911 16.6233C12.4216 16.522 13.8364 16.1283 15.0641 15.7853L15.031 15.7522C15.6721 15.2357 16.2821 14.7778 16.8531 14.275C17.4443 13.7567 17.9328 13.132 18.2933 12.4334C18.6363 11.7649 18.913 11.0692 19.219 10.3754C19.2743 10.7221 19.2991 11.0729 19.293 11.4239C19.3011 13.2155 20.0039 14.9341 21.2535 16.2179C22.5709 17.5821 24.2098 18.2954 26.0904 18.4708C28.1417 18.6833 30.2041 18.1897 31.9368 17.0715C32.2084 16.8774 32.4687 16.6679 32.7164 16.444C31.742 15.4871 30.8026 14.5809 29.8477 13.6533C29.7268 13.7408 29.5998 13.8196 29.4677 13.8891C28.9373 14.1552 28.3913 14.3888 27.8327 14.5887C27.0103 14.8421 26.1801 14.8187 25.422 14.3393C25.0832 14.1269 24.7922 13.8464 24.5674 13.5156C24.3427 13.1848 24.189 12.811 24.1163 12.4178C24.432 12.4002 24.6814 12.3749 24.9309 12.3749C27.7722 12.3749 30.6142 12.3749 33.4569 12.3749C34.0415 12.3749 34.102 12.3359 34.0552 11.8292C33.9811 11.0361 33.8603 10.2468 33.7492 9.45561C33.7102 9.17888 33.6245 8.90604 33.5543 8.62931L33.6498 8.59034C33.7356 8.76378 33.8252 8.93333 33.9012 9.11067C35.1582 11.9754 36.4171 14.8382 37.6566 17.7088C37.7038 17.8691 37.8067 18.0074 37.9467 18.0989C38.0867 18.1903 38.2546 18.2288 38.4205 18.2077C39.6619 18.1823 40.9052 18.1862 42.1485 18.2077C42.306 18.228 42.4655 18.1915 42.5984 18.1047C42.7313 18.0178 42.8289 17.8864 42.8735 17.7341C44.734 13.3896 46.6035 9.04831 48.4821 4.71028C48.5406 4.57971 48.5718 4.4355 48.64 4.22698L48.0807 4.21723ZM24.278 9.65438C24.4047 8.56306 25.6208 7.63737 26.868 7.6822C28.0217 7.72312 29.037 8.63711 29.074 9.69141C28.2945 9.79665 24.6425 9.76352 24.278 9.65438Z" fill="white"/>
<path d="M17.3947 25.5176C16.8948 25.5756 16.3883 25.5262 15.909 25.3726C15.4297 25.219 14.9888 24.9648 14.6157 24.627C13.2412 23.4213 11.8653 22.2182 10.4882 21.0178C10.3167 20.7781 10.1218 20.513 9.90355 20.2149C7.89628 17.4982 10.9384 16.8181 11.9108 16.6232C12.4214 16.5219 13.8362 16.1282 15.064 15.7852C15.1614 15.8807 15.2725 15.9957 15.3953 16.1029C16.662 17.2124 17.9307 18.32 19.2013 19.4256C19.8279 19.9597 20.2501 20.6946 20.3959 21.505C20.7623 23.3856 19.3201 25.3344 17.3947 25.5176Z" fill="white"/>
<path d="M65.4152 1.23354C65.2499 1.20805 65.0834 1.19114 64.9163 1.18288C64.1835 1.18288 63.4527 1.18288 62.72 1.18288C61.9872 1.18288 61.2915 1.18288 60.5763 1.18288C60.4581 1.16429 60.3373 1.19171 60.2387 1.2595C60.1401 1.32728 60.0712 1.43028 60.0462 1.5473C60.0114 1.66118 59.9705 1.77308 59.9235 1.8825C59.0504 4.1444 58.1741 6.40891 57.2945 8.67601C57.2302 8.84166 57.1503 9.00146 57.0763 9.16321H56.9574C56.8716 8.96833 56.782 8.77345 56.7041 8.57857C55.7842 6.2556 54.8605 3.93458 53.9562 1.60577C53.9214 1.46907 53.8383 1.34959 53.7222 1.26936C53.6062 1.18913 53.465 1.15357 53.3248 1.16923C51.8613 1.18677 50.4016 1.16923 48.9322 1.18093C48.8013 1.18924 48.6711 1.20617 48.5425 1.2316C48.6341 1.44986 48.7023 1.62136 48.7763 1.787C49.5948 3.65525 50.412 5.52415 51.2279 7.3937C52.2959 9.83879 53.3606 12.2852 54.422 14.7329C54.5604 15.0525 54.7221 15.2064 55.0982 15.1967C56.3754 15.172 57.6512 15.172 58.9257 15.1967C59.0756 15.2176 59.2279 15.1824 59.3534 15.0979C59.479 15.0134 59.5688 14.8855 59.6058 14.7387C59.789 14.2632 59.9956 13.7994 60.206 13.3317C60.2443 13.2536 60.2906 13.1798 60.3444 13.1115L64.776 2.78284L65.4152 1.23354Z" fill="white"/>
<path d="M72.8555 2.79261H73.3875C74.8862 2.79261 76.3829 2.80236 77.8815 2.79261C78.0229 2.77933 78.1651 2.807 78.2912 2.8723C78.4173 2.9376 78.522 3.0378 78.5928 3.16093C79.0488 3.85861 79.5341 4.53679 80.0096 5.22276C80.1148 5.37282 80.2278 5.51508 80.3759 5.70996C80.5202 5.51508 80.6351 5.37672 80.7384 5.22861C81.2334 4.51535 81.7265 3.80079 82.2176 3.08493C82.2645 2.99579 82.3352 2.92143 82.422 2.87016C82.5087 2.81889 82.6079 2.79271 82.7087 2.79456C84.3086 2.80625 85.9086 2.79456 87.5085 2.79456C87.5812 2.80587 87.6529 2.82281 87.7229 2.84523L83.0458 9.58613L88.0074 16.7967C87.8784 16.8184 87.7483 16.8333 87.6177 16.8415C86.0586 16.8415 84.521 16.8415 82.9717 16.8415C82.8385 16.8505 82.7054 16.8214 82.588 16.7576C82.4707 16.6937 82.374 16.5978 82.3091 16.481C81.7615 15.6605 81.1925 14.8537 80.6312 14.043C80.5357 13.9047 80.4364 13.7721 80.2863 13.5773C80.1518 13.7468 80.0368 13.8793 79.9355 14.0235C79.347 14.8589 78.7623 15.6956 78.1816 16.5336C78.1383 16.6247 78.0702 16.7018 77.985 16.7559C77.8998 16.8101 77.8011 16.839 77.7002 16.8396C76.0496 16.8279 74.4009 16.8396 72.6587 16.8396C72.9159 16.3796 73.2063 16.0152 73.4655 15.6333C73.7247 15.2513 74.0287 14.8226 74.3113 14.4191L75.1259 13.2499C75.3987 12.8601 75.6735 12.4704 75.9444 12.0806L76.7824 10.8606L77.6106 9.67187L72.8555 2.79261Z" fill="white"/>
<path d="M4.42186 20.2441C6.49157 20.2441 8.1694 18.5663 8.1694 16.4966C8.1694 14.4269 6.49157 12.749 4.42186 12.749C2.35215 12.749 0.674316 14.4269 0.674316 16.4966C0.674316 18.5663 2.35215 20.2441 4.42186 20.2441Z" fill="white"/>
<path d="M46.0229 21.2867V19.6478H46.6485C46.7868 19.6411 46.9235 19.6794 47.0383 19.7569C47.0846 19.7954 47.1214 19.8441 47.1458 19.8992C47.1701 19.9544 47.1813 20.0144 47.1786 20.0746C47.1821 20.1698 47.1486 20.2627 47.085 20.3338C47.0162 20.4054 46.9259 20.4526 46.8278 20.4682V20.4351C46.9344 20.4425 47.0354 20.4858 47.1143 20.5579C47.1497 20.5956 47.1773 20.64 47.1953 20.6886C47.2134 20.7371 47.2216 20.7887 47.2195 20.8404C47.2242 20.903 47.2138 20.9658 47.189 21.0235C47.1642 21.0812 47.1259 21.1321 47.0773 21.1717C46.9585 21.2553 46.8148 21.2959 46.6699 21.2867H46.0229ZM46.1633 20.3961H46.6329C46.7415 20.4031 46.8494 20.3751 46.9408 20.3162C46.9752 20.2881 47.0025 20.2523 47.0204 20.2116C47.0384 20.171 47.0465 20.1267 47.0441 20.0824C47.0468 20.038 47.0388 19.9936 47.0209 19.9529C47.0029 19.9122 46.9755 19.8764 46.9408 19.8485C46.8498 19.7887 46.7416 19.7606 46.6329 19.7686H46.1633V20.3961ZM46.1633 21.1639H46.6699C46.7757 21.1689 46.8806 21.1431 46.972 21.0899C47.0107 21.062 47.0415 21.0245 47.0613 20.9811C47.0811 20.9377 47.0893 20.8899 47.085 20.8424C47.0896 20.7943 47.0816 20.7458 47.0618 20.7017C47.042 20.6577 47.011 20.6195 46.972 20.591C46.8806 20.5377 46.7757 20.512 46.6699 20.5169H46.1633V21.1639Z" fill="white"/>
<path d="M47.9812 21.3062C47.9246 21.3103 47.8679 21.3025 47.8145 21.2834C47.7612 21.2642 47.7124 21.2342 47.6713 21.1951C47.5936 21.0992 47.5559 20.9771 47.5661 20.8541V20.1213H47.7064V20.8521C47.6989 20.9444 47.7245 21.0362 47.7785 21.1113C47.8076 21.1399 47.8425 21.1618 47.8808 21.1756C47.9192 21.1894 47.96 21.1947 48.0007 21.1912C48.0499 21.1935 48.0991 21.1851 48.1449 21.1666C48.1906 21.1481 48.2318 21.1199 48.2657 21.084C48.3009 21.0455 48.328 21.0003 48.3454 20.9511C48.3628 20.9019 48.3702 20.8497 48.367 20.7976V20.1291H48.5093V21.2984H48.369V21.0236H48.4002C48.3724 21.112 48.3162 21.1887 48.2404 21.2419C48.1625 21.2893 48.0721 21.3117 47.9812 21.3062Z" fill="white"/>
<path d="M49.3358 21.3062C49.2399 21.3078 49.1455 21.2829 49.0629 21.2341C48.9842 21.1834 48.922 21.111 48.8836 21.0256C48.8005 20.8186 48.8005 20.5875 48.8836 20.3805C48.922 20.2956 48.9843 20.2238 49.0629 20.1739C49.1449 20.1236 49.2396 20.0979 49.3358 20.0999C49.4345 20.0983 49.5312 20.1276 49.6125 20.1837C49.6902 20.238 49.7461 20.3181 49.7704 20.4097H49.7411V19.5757H49.8892V21.2867H49.7509V20.9944H49.7762C49.7525 21.0868 49.6965 21.1677 49.6183 21.2224C49.5355 21.2797 49.4365 21.309 49.3358 21.3062ZM49.3533 21.1834C49.4069 21.1855 49.4603 21.1756 49.5095 21.1543C49.5588 21.1331 49.6026 21.1011 49.6378 21.0606C49.7089 20.9549 49.7468 20.8304 49.7468 20.703C49.7468 20.5757 49.7089 20.4512 49.6378 20.3454C49.6027 20.3047 49.5589 20.2724 49.5097 20.2509C49.4605 20.2293 49.407 20.219 49.3533 20.2207C49.2999 20.219 49.2467 20.2293 49.1978 20.2509C49.1489 20.2725 49.1055 20.3048 49.0707 20.3454C49.0021 20.4521 48.9656 20.5762 48.9656 20.703C48.9656 20.8299 49.0021 20.954 49.0707 21.0606C49.1056 21.101 49.1491 21.1331 49.198 21.1543C49.2469 21.1756 49.3 21.1855 49.3533 21.1834Z" fill="white"/>
<path d="M50.7721 21.8051C50.6798 21.8056 50.5878 21.7924 50.4993 21.7661C50.4168 21.7404 50.3396 21.7001 50.2713 21.6472L50.3239 21.5381C50.3683 21.5709 50.4159 21.599 50.4662 21.6219C50.5121 21.6433 50.5606 21.659 50.6104 21.6687C50.663 21.6792 50.7165 21.6844 50.7702 21.6843C50.8187 21.6877 50.8674 21.6812 50.9133 21.6651C50.9592 21.649 51.0014 21.6237 51.0372 21.5907C51.1009 21.5153 51.1336 21.4185 51.1287 21.3198V20.9496H51.1541C51.1317 21.0421 51.0762 21.1232 50.9982 21.1776C50.9164 21.2342 50.8189 21.2635 50.7195 21.2614C50.6216 21.2642 50.525 21.2392 50.4408 21.1893C50.3627 21.1433 50.2998 21.0756 50.2596 20.9944C50.2172 20.8973 50.1953 20.7924 50.1953 20.6865C50.1953 20.5805 50.2172 20.4757 50.2596 20.3786C50.2998 20.2974 50.3627 20.2296 50.4408 20.1837C50.5254 20.1346 50.6218 20.1097 50.7195 20.1116C50.8188 20.1103 50.916 20.1396 50.9982 20.1954C51.0766 20.2503 51.1321 20.3321 51.1541 20.4253L51.1287 20.4L51.1482 20.133H51.2885C51.2885 20.1778 51.2769 20.2227 51.2749 20.2655C51.273 20.3084 51.2749 20.3513 51.2749 20.3942V21.3101C51.2805 21.3784 51.2721 21.4471 51.2503 21.5121C51.2285 21.5771 51.1938 21.637 51.1482 21.6882C51.0969 21.7324 51.037 21.7655 50.9723 21.7856C50.9076 21.8058 50.8395 21.8124 50.7721 21.8051ZM50.7351 21.1406C50.7888 21.1429 50.8424 21.1333 50.8919 21.1124C50.9415 21.0915 50.9858 21.0599 51.0216 21.0197C51.0981 20.9239 51.1363 20.803 51.1287 20.6806C51.1365 20.5588 51.0983 20.4385 51.0216 20.3435C50.9861 20.3028 50.942 20.2706 50.8924 20.2494C50.8428 20.2281 50.789 20.2183 50.7351 20.2207C50.6809 20.2184 50.6269 20.2283 50.577 20.2495C50.5271 20.2707 50.4826 20.3029 50.4467 20.3435C50.37 20.4385 50.3317 20.5588 50.3395 20.6806C50.332 20.803 50.3702 20.9239 50.4467 21.0197C50.4829 21.0598 50.5276 21.0914 50.5774 21.1123C50.6273 21.1331 50.6811 21.1428 50.7351 21.1406Z" fill="white"/>
<path d="M52.1535 21.3062C52.0761 21.31 51.9988 21.2977 51.9263 21.2702C51.8539 21.2427 51.7879 21.2006 51.7325 21.1464C51.6793 21.087 51.6383 21.0178 51.6119 20.9425C51.5854 20.8673 51.5741 20.7876 51.5786 20.7079C51.5759 20.5969 51.5993 20.4868 51.6468 20.3864C51.691 20.2979 51.7597 20.2238 51.8446 20.1731C51.9296 20.1223 52.0273 20.0969 52.1262 20.0999C52.2177 20.0974 52.3081 20.1204 52.3873 20.1662C52.4608 20.2131 52.5185 20.281 52.553 20.361C52.5941 20.4522 52.614 20.5515 52.6114 20.6514V20.7157H51.6819V20.6144H52.5237L52.4828 20.6436C52.4898 20.5331 52.4581 20.4235 52.3932 20.3338C52.3601 20.2949 52.3184 20.2644 52.2713 20.2448C52.2242 20.2251 52.1732 20.2169 52.1223 20.2207C52.0661 20.2177 52.0101 20.228 51.9586 20.2507C51.9072 20.2734 51.8618 20.3078 51.8261 20.3513C51.7503 20.4513 51.7124 20.5749 51.7189 20.7001V20.7157C51.7139 20.7792 51.7215 20.843 51.7412 20.9036C51.7609 20.9641 51.7924 21.0201 51.8339 21.0685C51.8757 21.1104 51.9261 21.1429 51.9816 21.1637C52.037 21.1845 52.0963 21.1933 52.1554 21.1893C52.2216 21.1895 52.2875 21.179 52.3503 21.1581C52.4172 21.1332 52.4782 21.0947 52.5296 21.0451L52.5861 21.1503C52.5317 21.2051 52.4648 21.2459 52.3912 21.2692C52.3145 21.2944 52.2342 21.307 52.1535 21.3062Z" fill="white"/>
<path d="M53.2917 21.3062C53.2477 21.309 53.2035 21.3021 53.1624 21.286C53.1213 21.2698 53.0843 21.2448 53.054 21.2126C52.9932 21.1301 52.9641 21.0284 52.9721 20.9262V20.2363H52.7402V20.1213H52.9721V19.7959L53.1144 19.7491V20.1213H53.4574V20.2363H53.1144V20.9047C53.1089 20.9783 53.1245 21.052 53.1592 21.1171C53.177 21.1394 53.2 21.1568 53.2262 21.1681C53.2524 21.1793 53.2809 21.1839 53.3093 21.1815C53.3364 21.1858 53.364 21.1858 53.3911 21.1815C53.4125 21.177 53.4334 21.1705 53.4535 21.162V21.2867C53.4304 21.2962 53.4062 21.3028 53.3814 21.3062C53.3516 21.3092 53.3215 21.3092 53.2917 21.3062Z" fill="white"/>
<path d="M54.3149 21.2867V19.6478H54.4416L55.1256 21.1912H55.0574L55.7434 19.6478H55.8662V21.2867H55.7356V19.8173H55.7999L55.151 21.2867H55.0477L54.3929 19.8173H54.4572V21.2867H54.3149Z" fill="white"/>
<path d="M56.71 21.3062C56.6136 21.3079 56.5185 21.2829 56.4353 21.2341C56.3571 21.1828 56.2949 21.1105 56.256 21.0255C56.2124 20.9234 56.1911 20.8131 56.1936 20.702C56.1907 20.5914 56.2127 20.4815 56.2579 20.3805C56.297 20.2955 56.36 20.2237 56.4392 20.1739C56.5204 20.1236 56.6145 20.0979 56.71 20.0999C56.8094 20.098 56.9069 20.1273 56.9887 20.1837C57.0661 20.2384 57.1208 20.3195 57.1427 20.4117H57.1154L57.1388 20.1213H57.2752L57.2635 20.2538C57.2635 20.2967 57.2635 20.3396 57.2635 20.3824V21.2867H57.1212V20.9963H57.1466C57.1243 21.0878 57.0696 21.1681 56.9926 21.2224C56.9096 21.2793 56.8107 21.3086 56.71 21.3062ZM56.7295 21.1834C56.7829 21.1859 56.8361 21.1762 56.8851 21.1549C56.9341 21.1336 56.9776 21.1014 57.0121 21.0606C57.0808 20.954 57.1173 20.8298 57.1173 20.703C57.1173 20.5762 57.0808 20.4521 57.0121 20.3454C56.9777 20.3044 56.9343 20.2719 56.8853 20.2503C56.8363 20.2287 56.783 20.2185 56.7295 20.2207C56.6758 20.2185 56.6222 20.2286 56.5729 20.2502C56.5236 20.2719 56.4799 20.3044 56.445 20.3454C56.3752 20.4516 56.338 20.5759 56.338 20.703C56.338 20.8301 56.3752 20.9544 56.445 21.0606C56.4808 21.1025 56.5258 21.1354 56.5766 21.1567C56.6274 21.178 56.6824 21.1872 56.7373 21.1834H56.7295Z" fill="white"/>
<path d="M57.6513 21.2867V20.3825C57.6513 20.3396 57.6513 20.2967 57.6513 20.2538C57.6513 20.211 57.6513 20.1661 57.6377 20.1213H57.778L57.7975 20.3883H57.7702C57.8008 20.3013 57.859 20.2267 57.9359 20.1759C58.0145 20.1244 58.1069 20.0979 58.2009 20.0999C58.2577 20.0957 58.3148 20.1034 58.3685 20.1225C58.4222 20.1416 58.4713 20.1718 58.5127 20.211C58.5522 20.2579 58.5819 20.3123 58.6003 20.3708C58.6187 20.4293 58.6254 20.4909 58.6199 20.552V21.2867H58.464V20.5637C58.4715 20.4715 58.4459 20.3796 58.3919 20.3045C58.3625 20.2758 58.3273 20.2538 58.2886 20.24C58.2499 20.2262 58.2087 20.221 58.1678 20.2246C58.1164 20.2219 58.065 20.23 58.017 20.2485C57.969 20.267 57.9254 20.2954 57.8891 20.3318C57.8532 20.37 57.8253 20.4151 57.8073 20.4643C57.7892 20.5135 57.7812 20.5659 57.7839 20.6183V21.2867H57.6513Z" fill="white"/>
<path d="M59.4381 21.3062C59.3416 21.3079 59.2465 21.283 59.1633 21.2341C59.0846 21.1834 59.0223 21.111 58.984 21.0256C58.9404 20.9234 58.9191 20.8131 58.9216 20.7021C58.9187 20.5914 58.9407 20.4815 58.986 20.3805C59.0249 20.2961 59.0871 20.2244 59.1652 20.174C59.2473 20.1239 59.3419 20.0982 59.4381 20.0999C59.5374 20.0984 59.6347 20.1277 59.7168 20.1837C59.7941 20.2385 59.8488 20.3195 59.8707 20.4117H59.8434L59.8668 20.1213H60.0032C60.0032 20.1662 59.9935 20.211 59.9896 20.2539C59.9857 20.2967 59.9896 20.3396 59.9896 20.3825V21.2867H59.8493V20.9963H59.8746C59.8518 21.0881 59.7964 21.1685 59.7187 21.2224C59.6365 21.2797 59.5382 21.309 59.4381 21.3062ZM59.4576 21.1834C59.5109 21.1857 59.564 21.1758 59.613 21.1545C59.6619 21.1333 59.7054 21.1012 59.7401 21.0607C59.8088 20.954 59.8453 20.8299 59.8453 20.7031C59.8453 20.5762 59.8088 20.4521 59.7401 20.3455C59.7055 20.3047 59.6621 20.2723 59.6131 20.2507C59.5642 20.2291 59.511 20.2189 59.4576 20.2207C59.4035 20.2188 59.3498 20.2291 59.3002 20.2506C59.2506 20.2722 59.2065 20.3046 59.1711 20.3455C59.1024 20.4521 59.0659 20.5762 59.0659 20.7031C59.0659 20.8299 59.1024 20.954 59.1711 21.0607C59.2064 21.101 59.2503 21.1329 59.2995 21.1542C59.3487 21.1754 59.402 21.1854 59.4556 21.1834H59.4576Z" fill="white"/>
<path d="M60.8707 21.8051C60.7784 21.8056 60.6865 21.7924 60.5979 21.7661C60.5161 21.7403 60.4395 21.7001 60.3719 21.6472L60.4225 21.5381C60.4669 21.5709 60.5146 21.599 60.5648 21.6219C60.6108 21.6433 60.6592 21.659 60.709 21.6687C60.7616 21.6791 60.8151 21.6843 60.8688 21.6843C60.9173 21.6879 60.9661 21.6815 61.0121 21.6654C61.058 21.6493 61.1001 21.6239 61.1358 21.5907C61.1995 21.5153 61.2323 21.4185 61.2274 21.3198V20.9496H61.2527C61.2303 21.0421 61.1749 21.1232 61.0968 21.1776C61.0152 21.2344 60.9176 21.2638 60.8181 21.2614C60.7203 21.2642 60.6236 21.2392 60.5394 21.1893C60.4614 21.1433 60.3984 21.0756 60.3582 20.9944C60.3158 20.8973 60.2939 20.7924 60.2939 20.6865C60.2939 20.5805 60.3158 20.4757 60.3582 20.3786C60.3984 20.2974 60.4614 20.2296 60.5394 20.1837C60.624 20.1346 60.7204 20.1097 60.8181 20.1116C60.9174 20.1101 61.0148 20.1394 61.0968 20.1954C61.1753 20.2503 61.2308 20.3321 61.2527 20.4253L61.2274 20.4L61.2488 20.133H61.3872C61.3872 20.1778 61.3774 20.2227 61.3735 20.2655C61.3696 20.3084 61.3735 20.3513 61.3735 20.3942V21.3101C61.3786 21.3784 61.3701 21.447 61.3483 21.5119C61.3266 21.5768 61.2921 21.6367 61.2469 21.6882C61.1953 21.732 61.1354 21.7649 61.0707 21.785C61.0061 21.8051 60.9381 21.8119 60.8707 21.8051ZM60.8337 21.1406C60.8877 21.1428 60.9415 21.1331 60.9914 21.1123C61.0412 21.0914 61.0859 21.0598 61.1221 21.0197C61.1971 20.9232 61.2345 20.8027 61.2274 20.6806C61.2349 20.5591 61.1975 20.4391 61.1221 20.3435C61.0848 20.3034 61.0395 20.2714 60.9892 20.2495C60.9389 20.2276 60.8847 20.2163 60.8298 20.2163C60.775 20.2163 60.7207 20.2276 60.6704 20.2495C60.6201 20.2714 60.5749 20.3034 60.5375 20.3435C60.4616 20.4389 60.4235 20.5589 60.4303 20.6806C60.4237 20.8029 60.4618 20.9234 60.5375 21.0197C60.5746 21.0608 60.6205 21.0931 60.6718 21.114C60.7231 21.1349 60.7784 21.144 60.8337 21.1406Z" fill="white"/>
<path d="M62.2521 21.3062C62.175 21.3099 62.098 21.2976 62.0259 21.2701C61.9538 21.2426 61.8882 21.2005 61.8331 21.1464C61.7793 21.0874 61.7377 21.0182 61.711 20.9429C61.6842 20.8676 61.6727 20.7877 61.6772 20.7079C61.6743 20.5966 61.6983 20.4863 61.7474 20.3864C61.791 20.2991 61.8586 20.2261 61.9423 20.1759C62.0287 20.124 62.128 20.0977 62.2287 20.0999C62.3208 20.0976 62.4118 20.1206 62.4918 20.1661C62.5642 20.2137 62.6211 20.2815 62.6555 20.361C62.6966 20.4522 62.7166 20.5514 62.714 20.6514V20.7157H61.7766V20.6144H62.6185L62.5795 20.6436C62.5859 20.5328 62.5535 20.4232 62.4879 20.3337C62.4552 20.295 62.4138 20.2646 62.367 20.245C62.3203 20.2253 62.2696 20.217 62.219 20.2207C62.1625 20.2174 62.1061 20.2275 62.0542 20.2502C62.0024 20.2729 61.9567 20.3075 61.9208 20.3513C61.8451 20.4513 61.8071 20.5748 61.8136 20.7001V20.7157C61.8046 20.8438 61.8458 20.9703 61.9286 21.0684C61.9705 21.1104 62.0209 21.1428 62.0763 21.1637C62.1318 21.1845 62.1911 21.1932 62.2502 21.1893C62.3164 21.1895 62.3822 21.179 62.4451 21.1581C62.5122 21.1336 62.5733 21.0951 62.6243 21.045L62.6828 21.1503C62.6277 21.2042 62.5611 21.2449 62.4879 21.2692C62.4118 21.2938 62.3322 21.3063 62.2521 21.3062Z" fill="white"/>
<path d="M63.0161 21.2867V20.3825C63.0161 20.3396 63.0161 20.2967 63.0161 20.2539C63.0161 20.211 63.0161 20.1662 63.0024 20.1213H63.1408L63.1603 20.3883H63.133C63.1558 20.3033 63.2068 20.2285 63.2776 20.1761C63.3484 20.1238 63.4348 20.0969 63.5228 20.0999C63.6091 20.0965 63.6941 20.1219 63.7644 20.172C63.8316 20.229 63.8754 20.3088 63.8872 20.3961H63.8521C63.8785 20.3097 63.9326 20.2343 64.0061 20.1818C64.0824 20.1264 64.1749 20.0976 64.2692 20.0999C64.3224 20.0963 64.3758 20.1044 64.4257 20.1235C64.4755 20.1427 64.5205 20.1726 64.5576 20.211C64.6304 20.3091 64.665 20.4303 64.655 20.552V21.2867H64.5128V20.5618C64.52 20.4716 64.4982 20.3814 64.4504 20.3045C64.4249 20.2761 64.3931 20.2541 64.3576 20.2402C64.3221 20.2263 64.2838 20.221 64.2458 20.2246C64.1988 20.2222 64.1518 20.2307 64.1086 20.2492C64.0654 20.2678 64.027 20.2961 63.9963 20.3318C63.9311 20.4125 63.8984 20.5147 63.9047 20.6183V21.2867H63.7625V20.5618C63.7697 20.4716 63.7479 20.3814 63.7001 20.3045C63.6758 20.2774 63.6456 20.2561 63.6118 20.2422C63.5781 20.2284 63.5416 20.2224 63.5052 20.2246C63.458 20.2225 63.4108 20.2311 63.3673 20.2496C63.3238 20.2682 63.285 20.2963 63.2538 20.3318C63.1894 20.4129 63.1568 20.5148 63.1622 20.6183V21.2867H63.0161Z" fill="white"/>
<path d="M65.5363 21.3062C65.4592 21.31 65.3822 21.2978 65.31 21.2703C65.2379 21.2428 65.1723 21.2006 65.1173 21.1464C65.0634 21.0874 65.0219 21.0182 64.9951 20.9429C64.9684 20.8676 64.9569 20.7877 64.9614 20.7079C64.9587 20.5969 64.9821 20.4868 65.0296 20.3864C65.0738 20.2979 65.1425 20.2238 65.2274 20.1731C65.3124 20.1223 65.4101 20.0969 65.509 20.0999C65.6005 20.0974 65.6909 20.1204 65.7702 20.1662C65.8436 20.2131 65.9013 20.281 65.9358 20.361C65.9769 20.4522 65.9969 20.5515 65.9943 20.6514V20.7157H65.0647V20.6144H65.9066L65.8657 20.6436C65.8726 20.5331 65.8409 20.4235 65.776 20.3338C65.743 20.2949 65.7012 20.2644 65.6541 20.2448C65.607 20.2251 65.556 20.2169 65.5051 20.2207C65.449 20.2177 65.3929 20.228 65.3414 20.2507C65.29 20.2734 65.2446 20.3078 65.2089 20.3513C65.1332 20.4513 65.0952 20.5749 65.1017 20.7001V20.7157C65.0967 20.7792 65.1043 20.843 65.124 20.9036C65.1437 20.9641 65.1752 21.0201 65.2167 21.0685C65.2586 21.1104 65.3089 21.1429 65.3644 21.1637C65.4199 21.1845 65.4791 21.1933 65.5382 21.1893C65.6045 21.1895 65.6703 21.179 65.7331 21.1581C65.8003 21.1337 65.8614 21.0951 65.9124 21.0451L65.9689 21.1503C65.9145 21.2051 65.8477 21.2459 65.7741 21.2692C65.6974 21.2944 65.617 21.307 65.5363 21.3062Z" fill="white"/>
<path d="M66.2978 21.2867V20.3825C66.2978 20.3396 66.2978 20.2967 66.2978 20.2538C66.2978 20.211 66.2978 20.1661 66.2842 20.1213H66.4225L66.444 20.3883H66.4167C66.4466 20.301 66.5049 20.2262 66.5823 20.1759C66.661 20.1244 66.7534 20.0979 66.8474 20.0999C66.9042 20.0958 66.9613 20.1035 67.015 20.1227C67.0686 20.1418 67.1177 20.1719 67.1592 20.211C67.2374 20.3066 67.2752 20.4289 67.2644 20.552V21.2867H67.1241V20.5637C67.1316 20.4715 67.106 20.3796 67.052 20.3045C67.0226 20.2758 66.9874 20.2538 66.9487 20.24C66.91 20.2262 66.8688 20.221 66.8279 20.2246C66.7762 20.222 66.7246 20.2302 66.6763 20.2486C66.628 20.2671 66.584 20.2954 66.5473 20.3318C66.5117 20.3702 66.4842 20.4153 66.4665 20.4645C66.4487 20.5137 66.4411 20.566 66.444 20.6183V21.2867H66.2978Z" fill="white"/>
<path d="M68.0129 21.3062C67.9689 21.309 67.9247 21.3021 67.8836 21.286C67.8425 21.2698 67.8055 21.2448 67.7752 21.2126C67.7144 21.1301 67.6853 21.0284 67.6933 20.9262V20.2363H67.4595V20.1213H67.6933V19.7959L67.8356 19.7491V20.1213H68.1786V20.2363H67.8356V20.9047C67.8292 20.9784 67.8448 21.0523 67.8804 21.1171C67.8982 21.1394 67.9212 21.1568 67.9474 21.1681C67.9736 21.1793 68.0021 21.1839 68.0305 21.1815C68.0576 21.1858 68.0852 21.1858 68.1123 21.1815C68.1336 21.1767 68.1545 21.1702 68.1747 21.162V21.2867C68.1516 21.2962 68.1273 21.3028 68.1026 21.3062C68.0728 21.309 68.0427 21.309 68.0129 21.3062Z" fill="white"/>
<path d="M69.5602 21.3062C69.4424 21.3083 69.3251 21.2905 69.2133 21.2536C69.1147 21.2211 69.0229 21.1709 68.9424 21.1055L69.0028 20.9866C69.0543 21.0268 69.109 21.0627 69.1665 21.0938C69.2221 21.1218 69.2811 21.1427 69.3419 21.1561C69.4133 21.1691 69.4857 21.1757 69.5582 21.1756C69.6732 21.1836 69.7875 21.1535 69.8837 21.0899C69.9188 21.0643 69.9472 21.0305 69.9662 20.9915C69.9852 20.9524 69.9944 20.9092 69.9928 20.8658C69.9953 20.8313 69.9899 20.7968 69.9771 20.7647C69.9642 20.7326 69.9443 20.7039 69.9187 20.6806C69.8396 20.6264 69.7488 20.5917 69.6537 20.5793L69.4159 20.5306C69.293 20.512 69.1773 20.4608 69.0808 20.3825C69.0433 20.3467 69.014 20.3033 68.9948 20.2552C68.9757 20.2072 68.9671 20.1555 68.9697 20.1038C68.9673 20.014 68.9939 19.9258 69.0457 19.8524C69.097 19.7783 69.1688 19.7207 69.2522 19.6868C69.349 19.6461 69.4533 19.6262 69.5582 19.6283C69.6664 19.6269 69.7739 19.6447 69.8759 19.6809C69.968 19.7136 70.0518 19.7662 70.1214 19.8349L70.0629 19.9518C69.9966 19.888 69.9185 19.8377 69.833 19.8037C69.7447 19.7727 69.6517 19.7576 69.5582 19.7589C69.4444 19.7529 69.3319 19.7851 69.2386 19.8505C69.2003 19.8791 69.1695 19.9165 69.1488 19.9596C69.1281 20.0027 69.1181 20.0502 69.1197 20.0979C69.1174 20.134 69.123 20.1701 69.1361 20.2038C69.1493 20.2375 69.1696 20.2679 69.1957 20.2928C69.2659 20.3493 69.3501 20.3856 69.4393 20.3981L69.679 20.4468C69.8065 20.4656 69.9276 20.5151 70.0318 20.591C70.0693 20.6242 70.0987 20.6655 70.118 20.7117C70.1372 20.758 70.1457 20.808 70.1428 20.858C70.1445 20.9417 70.1193 21.0236 70.0707 21.0918C70.0223 21.1621 69.9546 21.2169 69.8759 21.2497C69.7757 21.2902 69.6682 21.3095 69.5602 21.3062Z" fill="white"/>
<path d="M70.3767 21.8148L70.3417 21.6921C70.4042 21.6782 70.465 21.6573 70.5229 21.6297C70.57 21.6075 70.6118 21.5757 70.6457 21.5362C70.6802 21.4919 70.709 21.4434 70.7314 21.392L70.7918 21.2516V21.314L70.2812 20.1213H70.4391L70.8834 21.199H70.825L71.2654 20.1213H71.4193L70.8795 21.3978C70.8544 21.4613 70.8216 21.5214 70.7821 21.5771C70.75 21.6211 70.712 21.6605 70.6691 21.694C70.6298 21.7271 70.5849 21.7529 70.5365 21.77C70.4849 21.7902 70.4314 21.8052 70.3767 21.8148Z" fill="white"/>
<path d="M72.0058 21.3062C71.9197 21.307 71.834 21.2932 71.7525 21.2652C71.6806 21.2429 71.6143 21.2057 71.5576 21.1561L71.6141 21.0509C71.6722 21.0974 71.7382 21.1331 71.809 21.1561C71.8764 21.178 71.9467 21.1892 72.0175 21.1892C72.0969 21.1939 72.1758 21.1742 72.2436 21.1327C72.2677 21.116 72.2873 21.0935 72.3005 21.0673C72.3138 21.0411 72.3203 21.012 72.3196 20.9827C72.3207 20.9602 72.3169 20.9378 72.3085 20.9169C72.3001 20.8961 72.2872 20.8773 72.2709 20.8618C72.2243 20.8242 72.1684 20.7999 72.1091 20.7917L71.8987 20.7469C71.8155 20.7318 71.7384 20.6933 71.6765 20.6358C71.6521 20.6098 71.6331 20.5791 71.6207 20.5456C71.6083 20.5122 71.6028 20.4766 71.6044 20.4409C71.6035 20.3781 71.6211 20.3164 71.6551 20.2636C71.6931 20.2104 71.745 20.1686 71.8051 20.1427C71.8784 20.1116 71.9574 20.0964 72.037 20.0979C72.1156 20.097 72.1936 20.1109 72.267 20.1388C72.3328 20.1634 72.3922 20.2027 72.4404 20.2538L72.38 20.3571C72.3355 20.3121 72.2825 20.2763 72.2241 20.2519C72.1652 20.2285 72.1024 20.2166 72.039 20.2168C71.9614 20.2107 71.8841 20.2321 71.8207 20.2772C71.7969 20.2956 71.7776 20.3192 71.7644 20.3462C71.7512 20.3733 71.7445 20.403 71.7447 20.4331C71.7437 20.4557 71.7474 20.4782 71.7554 20.4993C71.7634 20.5204 71.7757 20.5397 71.7915 20.5559C71.8329 20.5922 71.8834 20.6164 71.9376 20.626L72.1481 20.6728C72.2343 20.6869 72.3151 20.7239 72.382 20.78C72.4085 20.8047 72.4293 20.835 72.4428 20.8687C72.4563 20.9024 72.4621 20.9387 72.4599 20.9749C72.4609 21.0386 72.4411 21.1008 72.4034 21.1522C72.3637 21.2049 72.3095 21.2448 72.2475 21.2672C72.1704 21.2963 72.0882 21.3096 72.0058 21.3062Z" fill="white"/>
<path d="M73.1423 21.3062C73.0983 21.309 73.0541 21.3021 73.013 21.286C72.9719 21.2698 72.9349 21.2448 72.9046 21.2126C72.8431 21.1303 72.8133 21.0286 72.8208 20.9262V20.2363H72.5889V20.1213H72.8208V19.7959L72.963 19.7491V20.1213H73.308V20.2363H72.963V20.9047C72.9571 20.9786 72.9734 21.0526 73.0098 21.1171C73.0272 21.1393 73.0498 21.1568 73.0757 21.1681C73.1016 21.1793 73.1298 21.1839 73.1579 21.1815C73.1857 21.1856 73.2139 21.1856 73.2417 21.1815C73.2625 21.177 73.2827 21.1705 73.3021 21.162V21.2867C73.2792 21.2967 73.2549 21.3033 73.23 21.3062C73.2009 21.309 73.1715 21.309 73.1423 21.3062Z" fill="white"/>
<path d="M74.0389 21.3062C73.9615 21.3099 73.8842 21.2977 73.8118 21.2702C73.7393 21.2427 73.6734 21.2006 73.618 21.1464C73.5644 21.0873 73.5231 21.018 73.4967 20.9427C73.4702 20.8674 73.4591 20.7876 73.464 20.7079C73.4613 20.5969 73.4847 20.4868 73.5322 20.3864C73.5758 20.2991 73.6434 20.2261 73.7271 20.1759C73.8137 20.1244 73.9129 20.0981 74.0136 20.0999C74.1057 20.0974 74.1967 20.1203 74.2767 20.1662C74.3501 20.2131 74.4078 20.281 74.4423 20.361C74.4834 20.4522 74.5034 20.5514 74.5008 20.6514V20.7157H73.5692V20.6144H74.4111L74.3722 20.6436C74.3786 20.5328 74.3462 20.4232 74.2806 20.3337C74.2478 20.295 74.2064 20.2646 74.1596 20.245C74.1129 20.2253 74.0622 20.217 74.0116 20.2207C73.9552 20.2179 73.8989 20.2282 73.8472 20.2509C73.7954 20.2735 73.7496 20.3079 73.7135 20.3513C73.6386 20.4517 73.6007 20.575 73.6063 20.7001V20.7157C73.5972 20.8438 73.6385 20.9703 73.7213 21.0684C73.7636 21.1102 73.8144 21.1426 73.8701 21.1634C73.9259 21.1842 73.9854 21.193 74.0448 21.1893C74.111 21.1897 74.1768 21.1792 74.2396 21.1581C74.307 21.1341 74.3682 21.0955 74.4189 21.0451L74.4774 21.1503C74.423 21.2051 74.3561 21.2459 74.2825 21.2692C74.2039 21.2947 74.1216 21.3073 74.0389 21.3062Z" fill="white"/>
<path d="M74.8007 21.2867V20.3825C74.8007 20.3396 74.8007 20.2967 74.8007 20.2539C74.8007 20.211 74.791 20.1662 74.7852 20.1213H74.9255L74.9469 20.3883H74.9177C74.943 20.3035 74.9949 20.229 75.0658 20.1759C75.1376 20.1239 75.2247 20.0972 75.3133 20.0999C75.3996 20.0965 75.4846 20.1219 75.5549 20.172C75.6222 20.2292 75.6664 20.3088 75.6797 20.3961H75.6446C75.6689 20.3092 75.7226 20.2335 75.7966 20.1817C75.8733 20.127 75.9655 20.0983 76.0597 20.0999C76.113 20.096 76.1665 20.104 76.2163 20.1232C76.2662 20.1424 76.3112 20.1724 76.3481 20.211C76.4219 20.3086 76.4567 20.4302 76.4455 20.552V21.2867H76.3052V20.5618C76.3129 20.4713 76.2903 20.3808 76.2409 20.3045C76.2157 20.2757 76.184 20.2534 76.1484 20.2395C76.1128 20.2256 76.0743 20.2205 76.0363 20.2246C75.9893 20.2222 75.9424 20.2307 75.8991 20.2492C75.8559 20.2678 75.8175 20.2961 75.7868 20.3318C75.7224 20.4129 75.6898 20.5148 75.6952 20.6183V21.2867H75.553V20.5618C75.5603 20.4716 75.5384 20.3814 75.4906 20.3045C75.4664 20.2772 75.4362 20.2559 75.4024 20.242C75.3687 20.2282 75.3322 20.2222 75.2957 20.2246C75.2487 20.2222 75.2018 20.2307 75.1586 20.2492C75.1153 20.2678 75.0769 20.2961 75.0463 20.3318C74.981 20.4125 74.9483 20.5147 74.9547 20.6183V21.2867H74.8007Z" fill="white"/>
<path d="M77.7237 21.2867L77.3027 20.1174H77.4567L77.8309 21.199H77.7665L78.1563 20.1174H78.3005L78.6805 21.199H78.6201L79.0001 20.1174H79.1463L78.7234 21.2867H78.5772L78.1875 20.1915H78.2693L77.8796 21.2867H77.7237Z" fill="white"/>
<path d="M79.3979 19.8348V19.6595H79.5928V19.8348H79.3979ZM79.4213 21.2867V20.1174H79.5636V21.2867H79.4213Z" fill="white"/>
<path d="M80.3274 21.3062C80.2833 21.309 80.2392 21.3021 80.1981 21.286C80.157 21.2698 80.1199 21.2448 80.0896 21.2126C80.0288 21.1301 79.9998 21.0284 80.0078 20.9262V20.2363H79.7739V20.1213H80.0078V19.7959L80.1481 19.7491V20.1213H80.4852V20.2363H80.1403V20.9047C80.1344 20.9786 80.1507 21.0526 80.1871 21.1171C80.2049 21.1394 80.2279 21.1568 80.2541 21.1681C80.2802 21.1793 80.3088 21.1839 80.3371 21.1815C80.3642 21.1858 80.3919 21.1858 80.419 21.1815C80.4403 21.1767 80.4611 21.1702 80.4813 21.162V21.2867C80.4582 21.2962 80.434 21.3028 80.4092 21.3062C80.382 21.3085 80.3546 21.3085 80.3274 21.3062Z" fill="white"/>
<path d="M80.7349 21.2867V19.5757H80.8752V20.3922H80.8479C80.8748 20.3028 80.9329 20.2261 81.0116 20.1759C81.0924 20.1244 81.1867 20.0979 81.2825 20.0999C81.3396 20.0946 81.3971 20.102 81.451 20.1216C81.5049 20.1411 81.5538 20.1723 81.5943 20.2129C81.6691 20.3079 81.7053 20.4276 81.6956 20.5481V21.2867H81.5534V20.5578C81.561 20.4674 81.5369 20.3771 81.4852 20.3026C81.4555 20.2743 81.4202 20.2527 81.3815 20.2393C81.3429 20.2258 81.3018 20.2208 81.261 20.2246C81.2094 20.222 81.1578 20.2302 81.1094 20.2486C81.0611 20.2671 81.0172 20.2954 80.9804 20.3318C80.945 20.3695 80.9174 20.414 80.8994 20.4625C80.8813 20.511 80.8731 20.5626 80.8752 20.6144V21.2867H80.7349Z" fill="white"/>
<path d="M83.1727 21.3062C83.0953 21.3099 83.018 21.2977 82.9456 21.2702C82.8731 21.2427 82.8072 21.2006 82.7518 21.1464C82.6981 21.0873 82.6569 21.018 82.6305 20.9427C82.604 20.8674 82.5929 20.7876 82.5978 20.7079C82.5951 20.5969 82.6185 20.4868 82.666 20.3864C82.7098 20.2992 82.7774 20.2262 82.8609 20.1759C82.9466 20.1242 83.0453 20.0978 83.1454 20.0999C83.2376 20.0971 83.3286 20.1201 83.4085 20.1662C83.4819 20.2131 83.5396 20.281 83.5742 20.361C83.6152 20.4522 83.6352 20.5514 83.6326 20.6514V20.7157H82.7011V20.6144H83.543L83.504 20.6436C83.511 20.533 83.4793 20.4235 83.4143 20.3337C83.381 20.2952 83.3392 20.265 83.2922 20.2454C83.2452 20.2258 83.1943 20.2173 83.1435 20.2207C83.087 20.2179 83.0307 20.2282 82.979 20.2509C82.9272 20.2735 82.8815 20.3079 82.8453 20.3513C82.7704 20.4517 82.7326 20.575 82.7381 20.7001V20.7157C82.7335 20.7793 82.7414 20.8432 82.7615 20.9037C82.7815 20.9642 82.8133 21.0202 82.855 21.0684C82.8969 21.1104 82.9473 21.1428 83.0027 21.1637C83.0582 21.1845 83.1175 21.1932 83.1766 21.1893C83.2428 21.1897 83.3087 21.1792 83.3715 21.1581C83.4388 21.1341 83.5001 21.0955 83.5508 21.0451L83.6092 21.1503C83.5548 21.2051 83.488 21.2459 83.4143 21.2692C83.3363 21.2945 83.2547 21.307 83.1727 21.3062Z" fill="white"/>
<path d="M84.3829 21.3062C84.2864 21.3079 84.1913 21.2829 84.1081 21.2341C84.0294 21.1834 83.9671 21.111 83.9288 21.0256C83.8852 20.9234 83.864 20.8131 83.8665 20.7021C83.8635 20.5914 83.8855 20.4815 83.9308 20.3805C83.9685 20.2953 84.031 20.2233 84.1101 20.1739C84.192 20.1236 84.2867 20.0978 84.3829 20.0999C84.4817 20.098 84.5785 20.1273 84.6596 20.1837C84.7369 20.2388 84.7922 20.3196 84.8155 20.4117H84.7727L84.796 20.1213H84.9344C84.9344 20.1661 84.9247 20.211 84.9208 20.2538C84.9169 20.2967 84.9208 20.3396 84.9208 20.3824V21.2867H84.7727V20.9963H84.798C84.7767 21.0882 84.7218 21.1689 84.644 21.2224C84.5673 21.2758 84.4764 21.305 84.3829 21.3062ZM84.4004 21.1834C84.4541 21.186 84.5076 21.1762 84.5569 21.1549C84.6062 21.1337 84.65 21.1014 84.685 21.0606C84.7536 20.954 84.7901 20.8299 84.7901 20.703C84.7901 20.5762 84.7536 20.4521 84.685 20.3454C84.6485 20.3065 84.6044 20.2754 84.5555 20.2542C84.5066 20.233 84.4538 20.222 84.4004 20.222C84.3471 20.222 84.2943 20.233 84.2454 20.2542C84.1964 20.2754 84.1524 20.3065 84.1159 20.3454C84.0473 20.4521 84.0108 20.5762 84.0108 20.703C84.0108 20.8299 84.0473 20.954 84.1159 21.0606C84.1504 21.1004 84.1933 21.132 84.2415 21.1533C84.2897 21.1745 84.342 21.1848 84.3946 21.1834H84.4004Z" fill="white"/>
<path d="M85.6865 21.3062C85.6003 21.307 85.5147 21.2932 85.4332 21.2653C85.3613 21.2429 85.2949 21.2057 85.2383 21.1561L85.2948 21.0509C85.3525 21.0981 85.4186 21.1338 85.4897 21.1561C85.557 21.178 85.6274 21.1892 85.6982 21.1893C85.7775 21.1939 85.8564 21.1742 85.9243 21.1328C85.9484 21.116 85.9679 21.0935 85.9812 21.0673C85.9944 21.0411 86.001 21.0121 86.0003 20.9827C86.0013 20.9602 85.9975 20.9378 85.9891 20.917C85.9807 20.8961 85.9679 20.8773 85.9515 20.8619C85.9042 20.8243 85.8477 20.8001 85.7878 20.7917L85.5793 20.7469C85.4962 20.7319 85.4191 20.6933 85.3572 20.6358C85.3327 20.6098 85.3137 20.5792 85.3014 20.5457C85.289 20.5122 85.2834 20.4766 85.2851 20.4409C85.2833 20.378 85.301 20.3161 85.3357 20.2636C85.3738 20.2104 85.4257 20.1686 85.4858 20.1428C85.5584 20.1119 85.6368 20.0966 85.7157 20.098C85.7949 20.0971 85.8736 20.1109 85.9476 20.1389C86.0135 20.1634 86.0729 20.2027 86.1211 20.2539L86.0607 20.3571C86.0162 20.3121 85.9632 20.2763 85.9048 20.2519C85.8459 20.2285 85.783 20.2166 85.7196 20.2168C85.642 20.2107 85.5648 20.2321 85.5014 20.2772C85.4775 20.2956 85.4582 20.3192 85.4451 20.3463C85.4319 20.3733 85.4251 20.4031 85.4254 20.4331C85.4244 20.4557 85.428 20.4783 85.4361 20.4994C85.4441 20.5205 85.4564 20.5397 85.4721 20.5559C85.5136 20.5922 85.5641 20.6164 85.6183 20.6261L85.8288 20.6728C85.9149 20.6869 85.9957 20.7239 86.0626 20.78C86.0892 20.8047 86.11 20.835 86.1235 20.8687C86.1369 20.9024 86.1428 20.9387 86.1406 20.9749C86.1416 21.0386 86.1217 21.1009 86.0841 21.1523C86.0444 21.2049 85.9902 21.2449 85.9282 21.2672C85.851 21.2964 85.7689 21.3096 85.6865 21.3062Z" fill="white"/>
<path d="M86.9572 21.3062C86.8801 21.3097 86.8032 21.2973 86.7311 21.2698C86.659 21.2423 86.5934 21.2003 86.5382 21.1464C86.4843 21.0874 86.4428 21.0182 86.416 20.9429C86.3893 20.8676 86.3778 20.7877 86.3823 20.7079C86.3793 20.5966 86.4034 20.4863 86.4525 20.3864C86.4961 20.2991 86.5637 20.2261 86.6473 20.1759C86.7337 20.124 86.8331 20.0977 86.9338 20.0999C87.0259 20.0976 87.1169 20.1206 87.1969 20.1661C87.2698 20.2132 87.3268 20.2811 87.3606 20.361C87.4017 20.4522 87.4217 20.5514 87.4191 20.6514V20.7157H86.4895V20.6144H87.3314L87.2924 20.6436C87.2988 20.5328 87.2664 20.4232 87.2008 20.3337C87.1681 20.295 87.1266 20.2646 87.0799 20.245C87.0332 20.2253 86.9824 20.217 86.9319 20.2207C86.8754 20.2177 86.8191 20.228 86.7673 20.2506C86.7155 20.2733 86.6698 20.3078 86.6337 20.3513C86.558 20.4513 86.52 20.5748 86.5265 20.7001V20.7157C86.5175 20.8438 86.5587 20.9703 86.6415 21.0684C86.6836 21.11 86.734 21.1423 86.7894 21.1631C86.8448 21.184 86.904 21.1929 86.963 21.1893C87.0293 21.1895 87.0951 21.179 87.1579 21.1581C87.2251 21.1336 87.2862 21.0951 87.3372 21.045L87.3957 21.1503C87.3406 21.2042 87.274 21.2449 87.2008 21.2692C87.1222 21.2947 87.0399 21.3072 86.9572 21.3062Z" fill="white"/>
<path d="M87.6841 21.2867V21.0918H87.879V21.2867H87.6841ZM87.7386 20.8853L87.6938 19.6478H87.8712L87.8283 20.8853H87.7386Z" fill="white"/>
</g>
</g>
<defs>
<clipPath id="clip0_28_1571">
<rect width="88" height="25.5371" fill="white"/>
</clipPath>
<clipPath id="clip1_28_1571">
<rect width="88" height="25.5371" fill="white"/>
</clipPath>
</defs>
</svg>
