<svg width="26" height="26" viewBox="0 0 26 26" fill="none" xmlns="http://www.w3.org/2000/svg">
<path d="M14.0894 13.0778L4.04764 14.7274C3.93219 14.7464 3.82385 14.795 3.73351 14.8684C3.64318 14.9417 3.57403 15.0373 3.53302 15.1453L0.0706729 24.2907C-0.259963 25.1319 0.631954 25.9337 1.45055 25.5289L25.4483 13.6995C25.6142 13.6176 25.7537 13.4917 25.8511 13.3361C25.9486 13.1805 26.0002 13.0012 26.0002 12.8182C26.0002 12.6353 25.9486 12.456 25.8511 12.3004C25.7537 12.1447 25.6142 12.0189 25.4483 11.937L1.45055 0.107592C0.631954 -0.295921 -0.259963 0.505847 0.0706729 1.34573L3.53435 10.4911C3.57536 10.5992 3.64451 10.6947 3.73485 10.7681C3.82518 10.8415 3.93352 10.8901 4.04897 10.9091L14.0907 12.5587C14.1533 12.5685 14.2104 12.6001 14.2515 12.6476C14.2927 12.6952 14.3153 12.7557 14.3153 12.8182C14.3153 12.8808 14.2927 12.9413 14.2515 12.9888C14.2104 13.0364 14.1533 13.068 14.0907 13.0778H14.0894Z" fill="white"/>
</svg>
