<svg width="17" height="15" viewBox="0 0 17 15" fill="none" xmlns="http://www.w3.org/2000/svg">
<g clip-path="url(#clip0_524_2592)">
<path d="M15.4998 3.46667L12.8136 1.00834C12.6361 0.847535 12.3959 0.757263 12.1454 0.757263C11.895 0.757263 11.6548 0.847535 11.4773 1.00834L1.95423 9.66667L1.08475 13.0833C1.05475 13.2082 1.05578 13.3377 1.08776 13.4622C1.11973 13.5866 1.18185 13.7031 1.26956 13.8029C1.35728 13.9027 1.46838 13.9834 1.59475 14.0392C1.72113 14.0949 1.85958 14.1242 1.99999 14.125C2.06542 14.131 2.13134 14.131 2.19677 14.125L5.99045 13.3333L15.4998 4.68334C15.6764 4.52172 15.7756 4.303 15.7756 4.07501C15.7756 3.84702 15.6764 3.6283 15.4998 3.46667ZM5.53282 12.5833L1.97711 13.2625L2.7871 10.0875L9.91226 3.62501L12.658 6.12501L5.53282 12.5833ZM13.2712 5.52084L10.5255 3.02084L12.118 1.57917L14.818 4.07917L13.2712 5.52084Z" fill="#2E2E2E"/>
</g>
<defs>
<clipPath id="clip0_524_2592">
<rect width="16.4744" height="15" fill="white"/>
</clipPath>
</defs>
</svg>
