<svg width="90" height="21" viewBox="0 0 90 21" fill="none" xmlns="http://www.w3.org/2000/svg">
<path d="M8.5529 18.1049C10.4505 18.1045 12.2935 17.4692 13.7883 16.3003L18.4882 20.9999L19.9999 19.4882L15.3001 14.7887C16.4697 13.2938 17.1053 11.4505 17.1058 9.55244C17.1058 4.83683 13.2688 0.999994 8.5529 0.999994C3.83704 0.999994 0 4.83683 0 9.55244C0 14.268 3.83704 18.1049 8.5529 18.1049ZM8.5529 3.1381C12.0906 3.1381 14.9676 6.01493 14.9676 9.55244C14.9676 13.0899 12.0906 15.9668 8.5529 15.9668C5.01521 15.9668 2.13822 13.0899 2.13822 9.55244C2.13822 6.01493 5.01521 3.1381 8.5529 3.1381Z" fill="#8D8D8D"/>
<path d="M39.9998 0.999994C37.2388 0.999994 34.9998 3.36093 34.9998 6.27374C34.9998 8.62508 35.8748 14.2057 44.4877 19.847C44.642 19.947 44.8191 19.9999 44.9997 19.9999C45.1803 19.9999 45.3575 19.947 45.5117 19.847C54.1247 14.2057 54.9997 8.62508 54.9997 6.27374C54.9997 3.36093 52.7607 0.999994 49.9997 0.999994C47.2387 0.999994 44.9997 4.1962 44.9997 4.1962C44.9997 4.1962 42.7608 0.999994 39.9998 0.999994Z" stroke="#8D8D8D" stroke-width="2" stroke-linecap="round" stroke-linejoin="round"/>
<path d="M89.7713 16.8327C89.1241 16.2773 88.5575 15.6406 88.0867 14.9398C87.5728 13.9724 87.2648 12.9159 87.1807 11.8323V8.64085C87.1851 6.93892 86.5438 5.294 85.3772 4.01515C84.2106 2.73631 82.599 1.91156 80.8452 1.69587V0.86247C80.8452 0.633729 80.7508 0.414356 80.5827 0.252612C80.4147 0.0908672 80.1868 0 79.9492 0C79.7116 0 79.4837 0.0908672 79.3157 0.252612C79.1476 0.414356 79.0532 0.633729 79.0532 0.86247V1.70879C77.3152 1.94003 75.723 2.76976 74.5717 4.04431C73.4204 5.31886 72.788 6.95186 72.7915 8.64085V11.8323C72.7075 12.9159 72.3994 13.9724 71.8855 14.9398C71.423 15.639 70.8655 16.2756 70.2278 16.8327C70.1562 16.8932 70.0988 16.9678 70.0595 17.0513C70.0201 17.1349 69.9997 17.2255 69.9996 17.3172V18.1959C69.9996 18.3672 70.0703 18.5315 70.1962 18.6527C70.322 18.7738 70.4927 18.8419 70.6707 18.8419H89.3283C89.5063 18.8419 89.677 18.7738 89.8029 18.6527C89.9288 18.5315 89.9995 18.3672 89.9995 18.1959V17.3172C89.9994 17.2255 89.9789 17.1349 89.9396 17.0513C89.9003 16.9678 89.8429 16.8932 89.7713 16.8327ZM71.3956 17.5498C72.02 16.9692 72.5698 16.3185 73.0331 15.6117C73.6805 14.4433 74.0582 13.1541 74.1405 11.8323V8.64085C74.1139 7.88371 74.2458 7.12916 74.5285 6.42212C74.8111 5.71508 75.2386 5.07002 75.7856 4.52535C76.3326 3.98068 76.9879 3.54754 77.7124 3.25172C78.4369 2.9559 79.2159 2.80345 80.0029 2.80345C80.7899 2.80345 81.5688 2.9559 82.2934 3.25172C83.0179 3.54754 83.6732 3.98068 84.2202 4.52535C84.7672 5.07002 85.1947 5.71508 85.4773 6.42212C85.76 7.12916 85.8919 7.88371 85.8653 8.64085V11.8323C85.9475 13.1541 86.3253 14.4433 86.9727 15.6117C87.436 16.3185 87.9858 16.9692 88.6102 17.5498H71.3956Z" fill="#8D8D8D"/>
<path d="M80.0331 20.9998C80.4558 20.9904 80.8615 20.8374 81.1784 20.5679C81.4953 20.2983 81.7029 19.9296 81.7646 19.5268H78.2344C78.2978 19.9405 78.5152 20.3179 78.846 20.5889C79.1769 20.8598 79.5987 21.0059 80.0331 20.9998Z" fill="#8D8D8D"/>
</svg>
